<svg width="2128" height="1342" viewBox="0 0 2128 1342" fill="none" xmlns="http://www.w3.org/2000/svg">
<path d="M2128 946.661C2128 1164.79 1651.95 1341.71 1064.36 1341.71C476.758 1341.71 0 1164.79 0 946.661C0 727.822 476.758 550.903 1064.36 550.903C1651.95 550.903 2128 727.822 2128 946.661Z" fill="#44A67D"/>
<path d="M1726.56 946.662C1726.56 1082.37 1430.27 1192.5 1064.35 1192.5C698.437 1192.5 402.151 1082.37 402.151 946.662C402.151 810.242 698.437 700.112 1064.35 700.112C1430.27 700.112 1726.56 810.242 1726.56 946.662Z" fill="black" fill-opacity="0.3"/>
<path fill-rule="evenodd" clip-rule="evenodd" d="M1146.77 1284.16C1115.04 1284.16 1083.06 1283.68 1050.85 1282.74C799.329 1273.5 564.148 1229.45 388.65 1159.11C210.31 1087.34 113.68 995.686 117.232 901.898C120.785 808.11 223.099 723.558 406.413 665.296C586.884 607.033 824.908 580.034 1076.43 589.27C1327.95 598.507 1563.14 642.559 1738.63 712.901C1916.97 784.663 2013.6 876.32 2010.05 970.108C2006.5 1063.9 1904.18 1148.45 1720.87 1206.71C1563.85 1257.16 1362.06 1284.16 1146.77 1284.16ZM980.511 604.192C766.645 604.192 566.99 630.48 411.387 680.217C235.178 737.058 136.417 815.926 133.575 902.609C130.022 989.292 223.099 1074.55 394.334 1143.47C568.411 1213.82 802.171 1257.16 1051.56 1266.39C1301.66 1274.92 1537.56 1248.63 1715.9 1191.08C1892.1 1134.95 1990.87 1056.08 1993.71 969.397C1997.26 882.714 1904.18 797.452 1732.95 728.532C1558.87 658.191 1325.11 614.849 1075.72 605.612C1043.51 604.665 1011.77 604.192 980.511 604.192Z" fill="black" fill-opacity="0.3"/>
<path d="M1250.42 951.035L1379.5 964.718L1508.59 991.903C1515.43 985.062 1467.9 60.7681 1467.9 60.7681L1245.56 949.775L1250.42 951.035Z" fill="#FF7587"/>
<path fill-rule="evenodd" clip-rule="evenodd" d="M930.16 34.2056L1467.2 61.3909L1244.86 950.398L1208.85 1094.43C1208.85 1094.43 624.283 1026.37 617.622 1019.71C610.781 1012.87 930.16 34.2056 930.16 34.2056ZM984.711 623.816L909.817 618.596L891.093 672.426L814.579 666.305L793.515 727.876L772.811 788.187L754.087 843.098L733.023 904.129L807.737 912.591L888.933 921.772L971.028 930.954L1042.5 939.056L1123.88 948.237L1141.52 883.965L1158.8 821.313L1175.55 760.282L1193.19 696.37L1208.85 639.119L1133.6 633.898L1059.61 628.857L984.711 623.816Z" fill="#212121"/>
<path d="M929.446 32.7853L951.046 33.6848L762 549.481L929.446 32.7853Z" fill="white" fill-opacity="0.2"/>
<path d="M1245.55 949.775L1209.55 1093.8L1379.5 964.718L1250.42 951.036L1245.55 949.775Z" fill="black" fill-opacity="0.3"/>
<path d="M1193.89 695.748L1209.55 638.497L1134.3 633.276L1117.55 689.627L1193.89 695.748Z" fill="white"/>
<path d="M1176.24 759.659L1193.89 695.747L1117.55 689.626L1098.47 753.178L1176.24 759.659Z" fill="white"/>
<path d="M1159.5 820.691L1176.24 759.66L1098.47 753.178L1080.29 813.85L1159.5 820.691Z" fill="white"/>
<path d="M1141.68 883.163L1142.22 883.343L1159.5 820.691L1080.29 813.85L1062.28 874.701L1141.68 883.163Z" fill="white"/>
<path d="M1043.2 938.433L1124.58 947.614L1142.22 883.342L1141.68 883.163L1062.28 874.701L1043.2 938.433Z" fill="white"/>
<path d="M1044.64 683.865L1117.55 689.627L1134.29 633.276L1060.3 628.235L1060.12 631.655L1044.64 683.865Z" fill="white"/>
<path d="M1098.47 753.178L1117.55 689.626L1044.64 683.865L1025.92 747.057L1098.47 753.178Z" fill="white"/>
<path d="M1080.28 813.85L1098.47 753.178L1025.91 747.057L1007.91 807.728L1080.28 813.85Z" fill="white"/>
<path d="M1062.28 874.701L1080.28 813.849L1007.91 807.728L990.448 867.139L1062.28 874.701Z" fill="white"/>
<path d="M1043.2 938.433L1062.28 874.701L990.448 867.14L971.725 930.332L1043.2 938.433Z" fill="white"/>
<path d="M967.944 677.744L1044.64 683.865L1060.12 631.655L1060.3 628.234L985.408 623.193L985.227 624.814L967.944 677.744Z" fill="white"/>
<path d="M1025.92 747.057L1044.64 683.865L967.945 677.744L947.781 740.396L1025.92 747.057Z" fill="white"/>
<path d="M1007.91 807.728L1025.92 747.057L947.781 740.396L927.978 800.887L1007.91 807.728Z" fill="#FB5144"/>
<path d="M990.449 867.14L1007.91 807.729L927.978 800.887L909.074 858.678L990.449 867.14Z" fill="white"/>
<path d="M889.629 921.15L971.724 930.332L990.448 867.14L909.073 858.678L890.169 917.009L889.629 921.15Z" fill="white"/>
<path d="M967.943 677.744L985.226 624.815L985.407 623.194L910.512 617.973L891.789 671.803L967.943 677.744Z" fill="white"/>
<path d="M947.779 740.396L967.943 677.744L891.789 671.803L870.185 733.735L947.779 740.396Z" fill="white"/>
<path d="M927.976 800.887L947.779 740.396L870.185 733.735L848.94 794.226L927.976 800.887Z" fill="white"/>
<path d="M909.073 858.676L927.977 800.885L848.942 794.224L829.498 850.215L909.073 858.676Z" fill="white"/>
<path d="M808.435 911.968L889.63 921.15L890.17 917.009L909.074 858.678L829.498 850.217L808.615 910.348L808.435 911.968Z" fill="white"/>
<path d="M870.187 733.735L891.791 671.803L815.277 665.682L794.213 727.253L870.187 733.735Z" fill="white"/>
<path d="M774.589 787.924L848.943 794.225L870.187 733.734L794.213 727.253L773.509 787.564L774.589 787.924Z" fill="white"/>
<path d="M754.784 842.475L829.498 850.216L848.942 794.226L774.588 787.924L773.508 787.564L754.784 842.475Z" fill="white"/>
<path d="M808.433 911.968L808.613 910.348L829.497 850.217L754.783 842.475L733.719 903.506L808.433 911.968Z" fill="white"/>
<path d="M1146.36 51.4062C1151.04 51.4062 1153.74 47.8054 1154.28 43.6647C1156.98 20.6203 1135.56 0.636577 1113.41 0.456543C1089.47 0.456543 1069.31 19.3601 1063.72 41.8643C1060.12 55.7269 1061.2 70.4895 1065.52 83.9921C1068.59 93.5339 1083.53 89.573 1080.65 79.8512C1073.63 57.8871 1077.05 31.062 1099.37 19.5399C1108.19 15.039 1118.45 14.8591 1126.92 20.0801C1135.02 25.301 1139.7 34.1229 1138.62 43.6647C1138.08 47.8054 1142.58 51.4062 1146.36 51.4062Z" fill="white"/>
<path d="M1267.88 48.1659C1269.32 25.6616 1247 6.93794 1225.21 8.37821C1201.27 9.99852 1183.08 28.9021 1175.7 50.6862C1171.02 64.3687 1170.3 79.3118 1171.2 93.7145C1171.74 103.796 1187.22 103.796 1186.86 93.7145C1185.6 70.4902 1188.66 42.7649 1210.27 29.2623C1218.55 24.2214 1228.99 22.0608 1237.99 26.3816C1246.64 30.5224 1252.94 38.444 1252.4 48.1659C1251.68 58.2478 1267.34 58.2478 1267.88 48.1659Z" fill="white"/>
<path d="M1049.68 46.9058C1054.36 46.9058 1056.88 43.3051 1057.42 39.1643C1060.48 17.3802 1038.16 -1.52325 1017.45 0.0970533C994.587 2.07743 977.123 21.5209 972.263 43.125C969.022 57.5277 970.282 72.2904 973.343 86.6931C975.503 96.5949 990.446 92.274 988.466 82.5522C983.965 61.3082 984.145 34.1234 1004.49 20.8009C1011.87 15.94 1021.41 13.7796 1029.69 18.1004C1037.8 22.2412 1043.02 29.8025 1041.94 39.1643C1041.4 43.3051 1045.9 46.9058 1049.68 46.9058Z" fill="white"/>
<path d="M1307.13 25.3015C1310.01 24.5814 1314.87 24.7614 1317.75 25.3015C1322.07 26.2017 1324.95 27.2816 1328.73 29.442C1336.11 33.7628 1341.7 40.9642 1342.42 48.8857C1342.78 53.0265 1345.84 56.6273 1350.34 56.6273C1354.3 56.6273 1358.44 53.0265 1358.08 48.8857C1356.1 25.6613 1333.95 8.55813 1311.09 9.27827C1299.21 9.4583 1288.23 14.8594 1280.84 24.2212C1272.74 34.3031 1269.5 46.9053 1269.14 59.6877C1268.78 74.2705 1271.84 89.0334 1275.62 103.076C1278.14 112.798 1293.27 108.657 1290.75 98.9352C1287.87 88.6733 1285.52 78.4114 1284.98 67.9695C1284.44 58.6077 1284.8 48.3456 1289.13 39.884C1293.09 32.1426 1299.21 26.9218 1307.13 25.3015Z" fill="white"/>
<path d="M1446.3 64.909C1449.9 65.9892 1455.12 63.6487 1455.84 59.508C1459.62 34.4833 1437.11 11.4388 1412.09 13.9593C1385.8 16.4798 1367.62 40.0642 1365.46 65.269C1364.2 81.1119 1369.06 97.1348 1376.62 110.997C1381.3 119.999 1394.81 112.077 1390.12 103.256C1378.6 82.0118 1375.54 52.1264 1396.97 35.9234C1405.25 29.8022 1416.05 27.1019 1425.59 31.6027C1434.23 35.5635 1442.33 45.2852 1440.71 55.3671C1440.17 59.5079 1441.79 63.6487 1446.3 64.909Z" fill="white"/>
<path d="M1499.58 988.303C1499.46 988.423 1499.4 988.483 1499.4 988.483C1499.4 988.483 1499.4 988.543 1499.4 988.663C1499.4 988.543 1499.46 988.423 1499.58 988.303Z" fill="#212121"/>
<path d="M1458.18 60.7681C1458.3 63.7686 1458.42 66.8289 1458.54 69.9495C1461.66 70.0696 1464.78 70.2497 1467.9 70.4897C1464.66 67.2491 1461.42 64.0087 1458.18 60.7681Z" fill="#212121"/>
<path d="M1208.65 1083.72C1208.17 1083.72 1207.63 1083.66 1207.03 1083.54C1203.07 1087.14 1206.85 1083.54 1208.65 1083.72Z" fill="#212121"/>
<path d="M1124.57 939.874C1122.65 939.634 1120.73 939.393 1118.81 939.153C1118.21 941.314 1117.61 943.474 1117.01 945.635C1119.53 943.714 1122.05 941.794 1124.57 939.874Z" fill="#212121"/>
<path d="M801.052 908.188C797.631 917.73 812.754 921.871 816.175 912.329C816.895 910.048 817.675 907.708 818.515 905.307C813.234 904.707 807.953 904.107 802.672 903.507C802.072 905.067 801.532 906.628 801.052 908.188Z" fill="#212121"/>
<path d="M1201.99 636.336C1201.15 639.457 1200.31 642.518 1199.47 645.518C1202.83 645.758 1206.19 645.998 1209.55 646.238C1207.03 642.998 1204.51 639.697 1201.99 636.336Z" fill="#212121"/>
<path d="M1203.61 689.987C1202.29 694.668 1200.97 699.349 1199.65 704.03C1207.75 704.39 1209.01 693.948 1203.61 689.987Z" fill="#212121"/>
<path d="M910.513 625.894C912.313 626.014 914.113 626.134 915.914 626.254C916.634 624.214 917.354 622.174 918.074 620.133C915.554 622.054 913.033 623.974 910.513 625.894Z" fill="#212121"/>
<path d="M741.28 905.487C742.36 902.607 743.381 899.726 744.341 896.846C740.86 896.485 737.319 896.126 733.719 895.766C736.239 899.006 738.76 902.247 741.28 905.487Z" fill="#212121"/>
<path d="M815.274 673.424C817.195 673.544 819.055 673.664 820.856 673.784C821.456 671.743 822.116 669.702 822.836 667.662C820.315 669.582 817.795 671.503 815.274 673.424Z" fill="#212121"/>
<path d="M944.539 683.686C1013.67 689.207 1082.75 694.728 1151.76 700.249C1162.44 701.089 1173.12 701.929 1183.8 702.769C1185.24 697.728 1186.62 692.627 1187.95 687.466C1148.7 684.346 1109.45 681.225 1070.2 678.105C1014.27 673.664 958.342 669.223 902.411 664.782C900.731 669.823 898.991 674.864 897.19 679.905C912.913 681.225 928.696 682.486 944.539 683.686Z" fill="#212121"/>
<path d="M897.191 679.905C898.991 674.864 900.731 669.823 902.412 664.782C897.131 664.302 891.79 663.882 886.389 663.522C884.588 668.563 882.848 673.604 881.168 678.645C886.449 679.125 891.79 679.545 897.191 679.905Z" fill="#212121"/>
<path d="M1187.95 687.466C1186.63 692.627 1185.24 697.728 1183.8 702.769C1188.97 703.129 1194.13 703.549 1199.29 704.029C1199.41 704.029 1199.53 704.029 1199.65 704.029C1200.97 699.348 1202.29 694.667 1203.61 689.987C1202.35 689.086 1201.09 688.546 1199.29 688.366C1195.57 688.126 1191.79 687.826 1187.95 687.466Z" fill="#212121"/>
<path d="M1217.11 640.477C1218.55 635.256 1214.59 630.936 1209.55 630.576C1122.17 624.694 1034.8 618.753 947.42 612.752C935.178 611.912 922.875 611.072 910.513 610.232C906.912 610.052 904.032 612.932 902.952 615.993C897.431 631.836 891.91 647.679 886.389 663.522C891.79 663.882 897.131 664.302 902.412 664.782C903.372 662.141 904.332 659.501 905.292 656.86C908.773 646.658 912.313 636.456 915.914 626.254C914.114 626.134 912.313 626.015 910.513 625.895C913.034 623.974 915.554 622.054 918.075 620.134C917.355 622.174 916.634 624.214 915.914 626.254C1001.49 632.016 1087.07 637.837 1172.64 643.718C1181.64 644.318 1190.59 644.918 1199.47 645.518C1200.31 642.518 1201.15 639.457 1201.99 636.337C1204.51 639.697 1207.03 642.998 1209.55 646.238C1206.19 645.998 1202.83 645.759 1199.47 645.518C1195.63 659.561 1191.79 673.543 1187.95 687.466C1191.79 687.826 1195.57 688.126 1199.29 688.366C1201.09 688.546 1202.35 689.087 1203.61 689.987C1204.57 686.026 1205.59 682.125 1206.67 678.285C1210.15 665.682 1213.63 653.08 1217.11 640.477Z" fill="#212121"/>
<path d="M881.168 678.645C858.724 742.977 836.279 807.249 813.835 871.461C810.114 882.143 806.394 892.825 802.673 903.507C807.954 904.107 813.235 904.707 818.516 905.307C844.801 830.173 871.026 755.039 897.191 679.905C891.79 679.545 886.449 679.125 881.168 678.645Z" fill="#212121"/>
<path d="M1183.8 702.769C1164.96 771.062 1146.18 839.415 1127.45 907.828C1124.57 918.27 1121.69 928.711 1118.81 939.153C1120.73 939.394 1122.65 939.634 1124.57 939.874C1122.05 941.794 1119.53 943.714 1117.01 945.635C1117.61 943.474 1118.21 941.314 1118.81 939.153C1076.92 934.473 1034.98 929.732 992.968 924.931C934.877 918.45 876.727 911.908 818.516 905.307C817.676 907.707 816.895 910.048 816.175 912.329C812.754 921.87 797.632 917.73 801.052 908.188C801.533 906.627 802.072 905.067 802.673 903.507C795.831 902.667 788.99 901.887 782.149 901.167C769.547 899.726 756.944 898.286 744.342 896.846C743.382 899.726 742.361 902.607 741.281 905.487C738.76 902.247 736.24 899.006 733.72 895.766C737.32 896.126 740.861 896.485 744.342 896.846C767.146 830.353 789.95 763.86 812.755 697.368C815.395 689.566 818.096 681.705 820.856 673.784C819.056 673.664 817.195 673.544 815.275 673.424C817.795 671.503 820.316 669.583 822.836 667.662C822.116 669.703 821.456 671.743 820.856 673.784C840.9 675.464 861.004 677.084 881.168 678.645C882.848 673.604 884.588 668.563 886.388 663.522C878.587 662.802 870.785 662.141 862.984 661.541C847.141 660.341 831.238 659.081 815.275 657.76C811.854 657.58 808.794 660.461 807.893 663.522C784.009 732.895 760.185 802.328 736.42 871.821C733.059 881.663 729.699 891.505 726.338 901.346C724.538 906.747 729.039 910.708 733.72 911.248C777.648 916.289 821.516 921.27 865.324 926.191C935.658 934.113 1005.99 942.034 1076.32 949.955C1092.41 951.876 1108.49 953.736 1124.57 955.537C1127.99 955.897 1131.23 952.836 1132.13 949.776C1154.7 867.8 1177.2 785.885 1199.65 704.03C1199.53 704.03 1199.41 704.03 1199.29 704.03C1194.13 703.549 1188.97 703.129 1183.8 702.769Z" fill="#212121"/>
<path d="M1047.34 740.937C977.126 734.936 906.853 728.994 836.52 723.113C820.437 721.673 804.294 720.293 788.09 718.972C778.189 718.072 778.189 733.736 788.09 734.636C832.019 738.356 875.887 742.077 919.695 745.798C990.029 751.679 1060.36 757.62 1130.69 763.621C1146.78 764.941 1162.86 766.321 1178.94 767.762C1189.03 768.662 1189.03 752.999 1178.94 752.099C1135.14 748.378 1091.27 744.658 1047.34 740.937Z" fill="#212121"/>
<path d="M1010.61 861.559C941.119 854.238 871.566 846.916 801.953 839.595C785.99 837.915 770.087 836.235 754.244 834.554C744.162 833.474 744.342 849.137 754.244 850.217C797.812 854.778 841.44 859.339 885.129 863.9C954.742 871.221 1024.29 878.543 1093.79 885.864C1109.75 887.544 1125.71 889.224 1141.68 890.905C1151.58 891.985 1151.58 876.322 1141.68 875.242C1097.99 870.681 1054.3 866.12 1010.61 861.559Z" fill="#212121"/>
<path d="M1033.84 802.148C963.503 796.147 893.17 790.146 822.837 784.144C806.754 782.824 790.671 781.504 774.588 780.183C764.506 779.283 764.686 794.946 774.588 795.847C818.396 799.567 862.264 803.288 906.193 807.009C976.526 812.89 1046.86 818.831 1117.19 824.832C1133.28 826.152 1149.36 827.532 1165.44 828.973C1175.34 829.693 1175.34 814.03 1165.44 813.31C1121.51 809.589 1077.64 805.869 1033.84 802.148Z" fill="#212121"/>
<path d="M1127.27 629.495C1100.39 719.752 1073.44 810.009 1046.44 900.266C1042.72 912.748 1039 925.291 1035.28 937.893C1032.4 947.615 1047.52 951.756 1050.22 942.034C1077.23 851.777 1104.17 761.58 1131.06 671.443C1134.78 658.841 1138.56 646.238 1142.4 633.636C1145.28 624.094 1130.16 619.953 1127.27 629.495Z" fill="#212121"/>
<path d="M1052.56 629.495C1026.75 716.752 1000.95 804.009 975.143 891.265C971.542 903.747 967.882 916.17 964.161 928.532C961.28 938.254 976.403 942.394 979.284 932.853C1004.97 845.476 1030.71 758.16 1056.52 670.903C1060.24 658.541 1063.9 646.119 1067.5 633.636C1070.38 624.095 1055.44 619.954 1052.56 629.495Z" fill="#212121"/>
<path d="M977.667 622.835C949.942 708.171 922.156 793.567 894.311 879.023C890.35 891.025 886.45 903.027 882.609 915.03C879.548 924.571 894.491 928.712 897.732 919.17C925.457 833.714 953.243 748.258 981.088 662.802C985.049 650.92 988.949 638.978 992.79 626.975C995.851 617.254 980.908 613.293 977.667 622.835Z" fill="#212121"/>
<path fill-rule="evenodd" clip-rule="evenodd" d="M936.499 292.656H1004.59C1009.01 292.656 1012.59 296.238 1012.59 300.656C1012.59 305.075 1009.01 308.656 1004.59 308.656H949.32L941.52 343.58H974.467C978.885 343.58 982.467 347.162 982.467 351.58C982.467 355.998 978.885 359.58 974.467 359.58H937.947L924.18 421.222C923.217 425.534 918.941 428.249 914.629 427.286C910.317 426.323 907.602 422.047 908.565 417.735L923.449 351.09C923.501 350.22 923.693 349.388 924.002 348.614L936.499 292.656Z" fill="#FB5144"/>
<path fill-rule="evenodd" clip-rule="evenodd" d="M1033.07 294.457V302.457C1033.07 294.457 1033.07 294.457 1033.08 294.457L1033.09 294.457L1033.11 294.457L1033.16 294.457C1033.2 294.457 1033.25 294.458 1033.32 294.459C1033.45 294.46 1033.62 294.464 1033.84 294.47C1034.28 294.482 1034.89 294.506 1035.64 294.552C1037.16 294.644 1039.28 294.825 1041.82 295.181C1046.88 295.889 1053.78 297.315 1060.95 300.218C1075.43 306.076 1091.66 318.331 1095.02 342.786C1095.89 349.117 1095.29 354.899 1093.18 360.016C1091.06 365.143 1087.62 369.12 1083.55 372.13C1075.66 377.967 1065.19 380.349 1055.79 381.291C1048.74 381.997 1041.68 381.949 1035.6 381.617L1067.28 425.605C1069.87 429.19 1069.05 434.19 1065.47 436.772C1061.88 439.354 1056.88 438.541 1054.3 434.956L1022.74 391.137L1016.02 423.345C1015.12 427.67 1010.88 430.445 1006.56 429.543C1002.23 428.64 999.456 424.403 1000.36 420.078L1026.57 294.457H1033.07ZM1028.2 364.967L1039.46 311.006C1039.51 311.013 1039.55 311.02 1039.6 311.026C1043.78 311.612 1049.33 312.776 1054.95 315.05C1066.06 319.546 1076.84 328 1079.17 344.963C1079.72 348.986 1079.24 351.84 1078.39 353.909C1077.54 355.967 1076.12 357.726 1074.04 359.268C1069.62 362.536 1062.61 364.527 1054.19 365.371C1045.98 366.193 1037.44 365.831 1030.84 365.23C1029.92 365.146 1029.03 365.057 1028.2 364.967ZM1033.05 310.457C1033.05 310.456 1033.05 310.457 1033.05 310.457Z" fill="#FB5144"/>
<path fill-rule="evenodd" clip-rule="evenodd" d="M1120.14 303.458H1188.22C1192.64 303.458 1196.22 307.04 1196.22 311.458C1196.22 315.876 1192.64 319.458 1188.22 319.458H1132.95L1125.16 354.305H1158.1C1162.52 354.305 1166.1 357.887 1166.1 362.305C1166.1 366.723 1162.52 370.305 1158.1 370.305H1121.58L1109.67 423.53L1159.35 431.38C1163.71 432.07 1166.69 436.167 1166 440.531C1165.31 444.895 1161.22 447.874 1156.85 447.184L1090.34 436.673L1107.08 361.813C1107.14 360.943 1107.33 360.11 1107.64 359.337L1120.14 303.458Z" fill="#FB5144"/>
<path fill-rule="evenodd" clip-rule="evenodd" d="M1211.38 314.26H1278.24C1282.66 314.26 1286.24 317.842 1286.24 322.26C1286.24 326.679 1282.66 330.26 1278.24 330.26H1224.26L1216.62 365.107H1248.73C1253.15 365.107 1256.73 368.689 1256.73 373.107C1256.73 377.526 1253.15 381.107 1248.73 381.107H1213.12L1201.45 434.353L1250.01 442.186C1254.37 442.89 1257.33 446.997 1256.63 451.358C1255.93 455.72 1251.82 458.686 1247.46 457.982L1182.2 447.454L1198.59 372.637C1198.64 371.776 1198.83 370.95 1199.13 370.183L1211.38 314.26Z" fill="#FB5144"/>
</svg>
